<svg xmlns="http://www.w3.org/2000/svg" width="390" height="844" viewBox="0 0 390 844">
  <style>.bg{fill:#fff}.muted{fill:#7a7a7a}.txt{font:500 14px -apple-system,BlinkMacSystemFont,'Segoe UI',sans-serif;fill:#111}.title{font:700 22px -apple-system,BlinkMacSystemFont,'Segoe UI',sans-serif;fill:#111}.sec{font:700 15px -apple-system,BlinkMacSystemFont,'Segoe UI',sans-serif;fill:#111}.card{fill:#f3f3f4}.line{stroke:#e5e5e5}.hi{fill:#fff;stroke:#6f46e8;stroke-width:1.8}.purple{fill:#6f46e8}.orange{fill:#ff6b35}.green{fill:#12a66a}.icon{font:600 18px -apple-system,BlinkMacSystemFont,'Segoe UI',sans-serif;fill:#111}.small{font:500 12px -apple-system,BlinkMacSystemFont,'Segoe UI',sans-serif;fill:#777}</style>
  <rect class="bg" width="390" height="844" rx="32"/>
  <text class="txt" x="32" y="42">22:54</text><text class="txt" x="310" y="42">▮▮  Wi‑Fi  70</text><text class="title" x="346" y="96">×</text>
  <circle cx="195" cy="142" r="43" fill="#eee"/><circle cx="195" cy="128" r="15" fill="#d8d8d8"/><path d="M160 174 Q195 136 230 174" fill="#d8d8d8"/>
  <text class="title" x="195" y="228" text-anchor="middle">AIX_ZLNSPF</text><text class="orange" x="195" y="253" text-anchor="middle" font-size="16">@ Kelvinfeng</text>
  <rect class="card" x="18" y="302" width="171" height="88" rx="16"/><text class="icon" x="44" y="341">⌗</text><rect class="green" x="112" y="326" width="70" height="25" rx="5"/><text x="147" y="344" text-anchor="middle" font-size="13" fill="#fff" font-weight="700">Verified</text><text class="txt" x="42" y="371">Verification status</text>
  <rect class="card" x="204" y="302" width="168" height="88" rx="16"/><text class="icon" x="239" y="342">♧</text><circle class="orange" cx="342" cy="324" r="13"/><text x="342" y="329" text-anchor="middle" fill="#fff" font-size="14" font-weight="700">1</text><text class="txt" x="239" y="371">Notifications</text>
  <text class="sec" x="32" y="442">Account</text>
  <rect class="card" x="18" y="470" width="354" height="130" rx="18"/>
  <text class="icon" x="46" y="513">▣</text><text class="txt" x="88" y="513">Display name</text><text class="muted" x="262" y="513">AIX_ZLNSPF</text><text class="icon" x="342" y="514">✎</text>
  <line class="line" x1="46" y1="536" x2="344" y2="536"/>
  <text class="icon" x="46" y="571">ⓧ</text><text class="txt" x="88" y="571">X-Tag</text><text class="muted" x="276" y="571">@Kelvinfeng</text><text class="icon" x="342" y="571">□</text>
  <text class="sec" x="32" y="676">Security</text>
  <rect class="card" x="18" y="704" width="354" height="126" rx="18"/>
  <text class="icon" x="46" y="745">⚿</text><text class="txt" x="88" y="745">Change password</text><text class="title" x="348" y="746">›</text>
  <line class="line" x1="46" y1="768" x2="344" y2="768"/>
  <text class="icon" x="46" y="803">▯</text><text class="txt" x="88" y="803">Phone number</text><text class="orange" x="300" y="803" font-size="16" font-weight="700">Add</text><text class="title" x="348" y="804">›</text>
  <rect class="hi" x="18" y="830" width="354" height="42" rx="10" transform="translate(0 -54)"/>
  <text class="icon" x="46" y="804">✉</text><text class="txt" x="88" y="804">Email</text><text class="muted" x="228" y="804">2********8@qq.com</text><text class="title" x="348" y="806">›</text>
</svg>